<svg xmlns="http://www.w3.org/2000/svg" id="SvgjsSvg1509" width="4096" height="1144.3718080057101" version="1.1" xmlns:xlink="http://www.w3.org/1999/xlink" xmlns:svgjs="http://svgjs.com/svgjs"><defs id="SvgjsDefs1510"></defs><rect id="SvgjsRect1511" width="4096" height="1144.3718080057101" fill="#1c9b94"></rect><g id="SvgjsG1512" transform="translate(328, 327.99999999999994) scale(34.4)" opacity="1"><defs id="SvgjsDefs1204"></defs><g id="SvgjsG1205" transform="scale(0.21645021645021645)" opacity="1"><g id="SvgjsG1206" class="B4_fRYyeL" transform="translate(-8.965944724621655, -14.560022191488653) scale(0.9518998539783047)" light-content="false" non-strokable="false" fill="#ffffff"><path d="M78.001 44.011c-.399-.23-.729-.798-.729-1.261V26.522c0-.461-.326-1.028-.726-1.258l-16.965-9.795c-.399-.231-1.053-.231-1.454 0l-14.054 8.114c-.398.23-1.053.23-1.453 0l-14.056-8.114c-.397-.23-1.053-.23-1.453 0l-16.965 9.795c-.398.23-.727.797-.727 1.258v19.59c0 .462.328 1.03.727 1.26l14.056 8.114c.4.23.728.798.728 1.259v16.227c0 .461.326 1.029.727 1.259l16.964 9.796c.4.23 1.055.23 1.453 0l14.056-8.115c.399-.229 1.054-.229 1.454 0l14.054 8.115c.399.23 1.054.23 1.454 0l16.963-9.796c.4-.23.727-.798.727-1.259V53.384c0-.462-.326-1.029-.727-1.26l-14.054-8.113zm-18.417 6.433c-.4.231-1.055.231-1.454 0l-8.232-4.753c-.398-.23-.398-.609 0-.839l8.236-4.757c.398-.23 1.053-.23 1.454 0l8.228 4.755c.399.231.399.609 0 .84l-8.232 4.754zm-16.963-1.393c.4-.23 1.055-.23 1.453.002l8.233 4.751c.399.232.399.61 0 .84L44.07 59.4c-.398.23-1.054.23-1.455 0l-8.227-4.754c-.4-.231-.4-.609 0-.841l8.233-4.754zm-15.509-26.86c.4-.23 1.056-.23 1.453 0l8.234 4.752c.398.231.398.61 0 .841l-8.236 4.754c-.399.231-1.054.231-1.453 0l-8.23-4.753c-.399-.231-.399-.609 0-.84l8.232-4.754zM15.241 33.248c0-.462.328-.651.729-.42l11.138 6.434c.4.231 1.055.231 1.454.001l29.566-17.072c.401-.23 1.055-.23 1.454 0l11.145 6.434c.397.229.726.796.726 1.259v9.503c0 .461-.327.651-.726.419l-11.139-6.434c-.401-.231-1.055-.231-1.454-.001L28.565 50.444c-.397.231-1.053.231-1.453 0L15.97 44.011c-.4-.23-.729-.797-.729-1.26v-9.503zm16.238 37.624c-.4-.23-.727-.797-.727-1.261v-9.503c0-.462.326-.65.727-.418l11.137 6.433c.401.232 1.057.232 1.455 0l29.567-17.072c.399-.23 1.054-.23 1.454 0l11.143 6.433c.4.23.727.798.727 1.26v9.505c0 .461-.326.65-.727.419l-11.139-6.434c-.4-.231-1.054-.231-1.453-.001L44.074 77.305c-.398.231-1.053.231-1.453 0l-11.142-6.433zm33.924 1.68c-.401-.23-.401-.608 0-.838l8.237-4.758c.401-.23 1.055-.23 1.455.001l8.229 4.754c.401.23.401.609 0 .84l-8.233 4.754c-.4.231-1.055.231-1.454 0l-8.234-4.753z"></path></g><g id="SvgjsG1207" class="text" transform="translate(186.5432387595481, 52.57147558528839) scale(1)" light-content="false" fill="#ffffff"><path d="M-55.01 -17.48C-56.32 -19.03 -58.34 -20.14 -61.09 -20.81C-59.13 -21.64 -57.63 -22.86 -56.57 -24.48C-55.51 -26.1 -54.98 -27.99 -54.98 -30.15C-54.98 -33.39 -56.12 -35.87 -58.41 -37.6C-60.69 -39.32 -63.89 -40.18 -68 -40.18L-82.27 -40.12L-81.83 -11.96L-82.27 0C-78.53 0.21 -74.87 0.31 -71.3 0.31C-59.13 0.31 -53.05 -3.57 -53.05 -11.34C-53.05 -13.87 -53.7 -15.92 -55.01 -17.48ZM-65.26 -32.93C-64.18 -32.16 -63.64 -30.86 -63.64 -29.03C-63.64 -27.33 -64.02 -26 -64.79 -25.04C-65.56 -24.09 -66.73 -23.4 -68.31 -22.99L-74.17 -23.18L-73.98 -34.08L-70.93 -34.08C-68.23 -34.08 -66.34 -33.69 -65.26 -32.93ZM-63.8 -7.29C-65.23 -6.25 -67.25 -5.73 -69.87 -5.73C-71.28 -5.73 -72.71 -5.81 -74.17 -5.98L-74.36 -12.71L-74.29 -17.13L-67.38 -17.26C-63.56 -16.55 -61.65 -14.72 -61.65 -11.77C-61.65 -9.82 -62.36 -8.33 -63.8 -7.29Z M-20.96 -6.98L-30.87 -6.6L-37.91 -6.67L-38.1 -12.71L-38.03 -17.01L-31.62 -17.07L-24.52 -16.88L-23.95 -23.18L-24.45 -23.8L-30.99 -23.61L-37.91 -23.74L-37.72 -33.39L-30.5 -33.46L-20.9 -33.14L-20.28 -39.44L-20.78 -40.12L-46.2 -40.12L-45.76 -11.96L-46.2 0L-21.03 0L-20.47 -6.29Z M16.23 -1.99C13.03 -6.15 9.81 -10.8 6.57 -15.95C8.94 -17.32 10.78 -19.07 12.09 -21.21C13.39 -23.35 14.05 -25.71 14.05 -28.28C14.05 -32.11 12.91 -35.04 10.62 -37.1C8.34 -39.16 5.1 -40.18 0.9 -40.18L-14.48 -40.12L-14.05 -11.96L-14.48 0L-6.01 0L-6.39 -12.71L-6.39 -13.52L-0.34 -13.52C1.53 -9.7 3.96 -5.21 6.95 -0.06L7.82 0.62C10.64 0.46 13.4 -0.1 16.1 -1.06ZM-6.26 -20.06L-6.01 -33.7L-1.78 -33.95C0.59 -33.87 2.35 -33.3 3.49 -32.24C4.63 -31.18 5.2 -29.59 5.2 -27.47C5.2 -23.57 3.44 -21.02 -0.09 -19.81Z M52.99 -1.99C49.79 -6.15 46.57 -10.8 43.33 -15.95C45.7 -17.32 47.53 -19.07 48.84 -21.21C50.15 -23.35 50.81 -25.71 50.81 -28.28C50.81 -32.11 49.66 -35.04 47.38 -37.1C45.09 -39.16 41.86 -40.18 37.66 -40.18L22.27 -40.12L22.71 -11.96L22.27 0L30.75 0L30.37 -12.71L30.37 -13.52L36.41 -13.52C38.28 -9.7 40.71 -5.21 43.7 -0.06L44.58 0.62C47.4 0.46 50.16 -0.1 52.86 -1.06ZM30.5 -20.06L30.75 -33.7L34.98 -33.95C37.35 -33.87 39.1 -33.3 40.25 -32.24C41.39 -31.18 41.96 -29.59 41.96 -27.47C41.96 -23.57 40.19 -21.02 36.66 -19.81Z M73.11 -11.15L73.23 -13.83L87.25 -40.12L78.59 -40.12L77.41 -37.07L69.81 -22.05L69.25 -22.05L62.46 -37.32L61.58 -40.12L52.61 -40.12L65.38 -13.52L65.45 -11.15L65.07 0L73.48 0Z"></path></g><g id="SvgjsG1208" class="text" transform="translate(371.81911867775193, 52.668025543167055) scale(1)" light-content="false" fill="#ffffff"><path d="M-60.71 -39.44L-61.21 -40.12L-89.68 -40.12L-90.24 -33.83L-89.68 -33.14L-82.02 -33.52L-79.53 -33.52L-79.21 -11.96L-79.65 0L-71.18 0L-71.55 -12.71L-71.24 -33.52L-68.75 -33.52L-61.21 -33.14Z M-24.52 -1.99C-27.71 -6.15 -30.93 -10.8 -34.17 -15.95C-31.8 -17.32 -29.97 -19.07 -28.66 -21.21C-27.35 -23.35 -26.7 -25.71 -26.7 -28.28C-26.7 -32.11 -27.84 -35.04 -30.12 -37.1C-32.41 -39.16 -35.65 -40.18 -39.84 -40.18L-55.23 -40.12L-54.79 -11.96L-55.23 0L-46.76 0L-47.13 -12.71L-47.13 -13.52L-41.09 -13.52C-39.22 -9.7 -36.79 -5.21 -33.8 -0.06L-32.93 0.62C-30.1 0.46 -27.34 -0.1 -24.64 -1.06ZM-47.01 -20.06L-46.76 -33.7L-42.52 -33.95C-40.15 -33.87 -38.4 -33.3 -37.26 -32.24C-36.11 -31.18 -35.54 -29.59 -35.54 -27.47C-35.54 -23.57 -37.31 -21.02 -40.84 -19.81Z M13.05 0L0.78 -40.12L-9.25 -40.12L-22.83 0L-14.48 0L-13.43 -5.67L-12.37 -8.97L-5.45 -9.16L2.4 -8.97L3.46 -5.23L4.45 0ZM0.59 -15.51L-4.83 -15.39L-10.19 -15.51L-4.7 -32.21L-4.14 -32.21Z M48.44 -35.51C45.32 -38.75 40.86 -40.37 35.04 -40.37L18.91 -40.12L19.34 -11.96L18.91 0C20.86 0.12 23.2 0.23 25.92 0.31C28.64 0.39 30.97 0.44 32.93 0.44C39.4 0.44 44.39 -1.45 47.88 -5.23C51.37 -9.01 53.11 -14.45 53.11 -21.56C53.11 -27.62 51.55 -32.27 48.44 -35.51ZM44.33 -19.62C44.33 -10.61 41.02 -6.11 34.42 -6.11C32.51 -6.11 30.1 -6.25 27.19 -6.54L27.01 -12.71L27.38 -33.33C29.87 -33.54 32.22 -33.64 34.42 -33.64C37.83 -33.64 40.33 -32.53 41.93 -30.31C43.53 -28.09 44.33 -24.53 44.33 -19.62Z M90.18 0L77.91 -40.12L67.88 -40.12L54.29 0L62.64 0L63.7 -5.67L64.76 -8.97L71.68 -9.16L79.53 -8.97L80.59 -5.23L81.58 0ZM77.72 -15.51L72.3 -15.39L66.94 -15.51L72.42 -32.21L72.98 -32.21Z"></path></g></g></g></svg>